<?xml version="1.0" standalone="no"?>
<!DOCTYPE svg PUBLIC "-//W3C//DTD SVG 20010904//EN"
 "http://www.w3.org/TR/2001/REC-SVG-20010904/DTD/svg10.dtd">
<svg version="1.0" xmlns="http://www.w3.org/2000/svg"
 width="96.000000pt" height="96.000000pt" viewBox="0 0 96.000000 96.000000"
 preserveAspectRatio="xMidYMid meet">
<metadata>
Created by potrace 1.10, written by Peter Selinger 2001-2011
</metadata>
<g transform="translate(0.000000,96.000000) scale(0.100000,-0.100000)"
fill="#000000" stroke="none">
<path d="M447 823 c-4 -3 -7 -34 -7 -67 0 -40 -6 -70 -16 -84 -20 -30 -30 -28
-43 8 -7 23 -16 30 -35 30 -29 0 -33 -12 -11 -30 8 -7 15 -23 15 -35 0 -12 -7
-28 -15 -35 -8 -7 -15 -18 -15 -25 0 -7 -7 -18 -15 -25 -22 -18 -20 -122 2
-158 29 -46 74 -81 124 -96 42 -12 54 -12 90 1 122 41 169 153 117 273 -12 27
-27 50 -33 50 -11 0 -45 -66 -45 -88 0 -15 26 -16 35 -2 12 20 25 -2 25 -41 0
-47 -22 -95 -57 -126 -21 -18 -37 -22 -90 -22 -57 1 -67 4 -93 29 -62 61 -53
123 28 202 49 46 60 64 68 104 l9 49 24 -38 c17 -27 22 -46 17 -68 -4 -24 -2
-29 13 -29 42 0 36 83 -10 142 -16 20 -29 43 -29 50 0 27 -36 48 -53 31z"/>
<path d="M458 573 c-8 -10 -18 -25 -22 -33 -3 -8 -15 -28 -25 -45 -24 -37 -25
-59 -6 -89 22 -33 109 -35 136 -3 26 31 23 58 -10 104 -16 22 -31 48 -32 58
-5 25 -23 29 -41 8z m12 -89 c0 -8 -7 -14 -15 -14 -17 0 -20 -25 -5 -35 6 -3
10 -13 10 -21 0 -12 -4 -12 -25 3 -26 19 -34 53 -11 53 7 0 16 9 19 21 6 23
27 17 27 -7z"/>
</g>
</svg>
