<?xml version="1.0" standalone="no"?>
<!DOCTYPE svg PUBLIC "-//W3C//DTD SVG 20010904//EN"
 "http://www.w3.org/TR/2001/REC-SVG-20010904/DTD/svg10.dtd">
<svg version="1.0" xmlns="http://www.w3.org/2000/svg"
 width="512.000000pt" height="512.000000pt" viewBox="0 0 512.000000 512.000000"
 preserveAspectRatio="xMidYMid meet">

<g transform="translate(0.000000,512.000000) scale(0.100000,-0.100000)"
fill="#000000" stroke="none">
<path d="M2517 3911 c-91 -100 -115 -186 -127 -446 -9 -197 -27 -281 -81 -389
-52 -102 -140 -216 -168 -216 -7 0 -11 19 -11 49 0 139 -103 306 -228 370 -50
26 -120 42 -128 30 -3 -5 18 -31 46 -59 29 -28 62 -74 77 -106 22 -49 25 -66
21 -138 -5 -96 -29 -153 -147 -344 -142 -230 -192 -447 -157 -678 73 -485 460
-823 943 -824 262 0 490 95 676 283 177 180 277 428 277 687 -1 230 -99 490
-272 721 -95 125 -94 125 -90 5 6 -186 -35 -310 -135 -403 -62 -58 -71 -90
-35 -126 62 -61 188 28 242 172 10 25 23 47 29 49 27 9 94 -214 106 -353 24
-287 -123 -593 -363 -754 -144 -97 -287 -136 -462 -128 -137 7 -205 24 -325
82 -240 116 -405 356 -405 589 0 200 88 345 350 576 225 198 290 273 350 403
46 99 60 168 60 303 0 98 -5 141 -25 219 -14 54 -24 103 -22 108 2 6 37 -33
78 -87 40 -53 96 -125 122 -159 100 -130 153 -283 144 -413 -5 -69 -11 -85
-75 -200 -17 -30 1 -69 38 -84 58 -24 131 50 168 170 23 76 22 254 -3 335 -40
137 -129 274 -280 435 -115 123 -158 223 -129 305 18 52 18 55 -5 55 -10 0
-34 -17 -54 -39z"/>
<path d="M2546 2802 c-2 -4 -12 -36 -21 -71 -23 -91 -81 -202 -205 -391 -176
-269 -207 -345 -197 -483 5 -83 55 -190 116 -254 144 -149 385 -176 562 -63
135 87 222 281 191 427 -18 87 -61 169 -193 366 -130 193 -185 299 -214 410
-17 62 -27 78 -39 59z m-20 -550 c6 -4 16 -17 23 -29 14 -28 2 -55 -64 -133
-25 -30 -57 -79 -72 -108 -31 -64 -28 -123 11 -182 26 -39 89 -80 123 -80 32
0 63 -29 63 -59 0 -40 -24 -56 -82 -53 -92 4 -179 66 -228 164 -65 132 -26
267 125 436 45 50 74 63 101 44z"/>
</g>
</svg>
