<svg version="1.1" id="Layer_1" xmlns="http://www.w3.org/2000/svg" xmlns:xlink="http://www.w3.org/1999/xlink" x="0px" y="0px"
	 width="100%" viewBox="0 0 512 512" enable-background="new 0 0 512 512" xml:space="preserve">
<path fill="#000000" opacity="1.000000" stroke="none" 
	d="
M282.354187,377.389771 
	C332.979980,357.978638 347.855530,300.215942 326.332611,259.943695 
	C324.295715,260.449371 324.306396,262.419037 323.735504,263.833435 
	C321.312897,269.835632 317.582336,274.843414 312.770996,279.125702 
	C310.318909,281.308136 307.473602,282.882629 304.295654,283.001526 
	C300.727020,283.135071 297.919861,281.175842 296.409058,277.853668 
	C294.920044,274.579468 296.335907,271.962463 298.882477,269.956085 
	C310.571228,260.747009 314.884125,248.273071 314.992645,233.914444 
	C315.032745,228.606934 314.999115,223.298859 314.999115,218.037659 
	C317.350891,217.059845 318.322540,218.795776 319.273926,219.945129 
	C339.437225,244.304184 354.042419,271.216522 352.879547,303.803223 
	C351.434418,344.298889 327.193512,379.246216 287.535461,392.601746 
	C245.473755,406.766724 198.946091,391.301849 175.821503,353.420776 
	C154.152542,317.924225 156.059753,282.299835 176.747437,247.015167 
	C180.870346,239.983154 185.909363,233.507034 189.115494,225.914764 
	C195.660294,210.416290 192.580246,196.773636 179.887650,185.843109 
	C178.784821,184.893372 177.026108,184.127670 177.749619,182.329803 
	C178.607834,180.197250 180.450363,181.103195 182.074829,181.385513 
	C197.828735,184.123383 211.587967,199.177200 214.376373,216.816696 
	C214.788177,219.421860 215.052567,222.050354 215.377777,224.609924 
	C217.724182,225.238800 218.689789,223.652924 219.701370,222.447098 
	C231.878647,207.931549 238.821381,191.465210 239.119659,172.253510 
	C239.300110,160.631180 239.035202,148.893112 242.665833,137.587097 
	C244.901215,130.625992 248.477081,124.502243 253.971771,119.631012 
	C255.556564,118.226051 257.585632,116.444778 259.733643,117.939270 
	C261.719147,119.320663 259.929871,121.300354 259.363373,122.910858 
	C256.900818,129.911804 259.319397,136.042969 262.802948,141.889633 
	C267.365387,149.547134 273.962189,155.542526 279.875488,162.081131 
	C289.649902,172.889099 297.226440,184.987549 300.555695,199.244186 
	C303.847321,213.339630 303.845428,227.359085 296.496216,240.515549 
	C294.605865,243.899567 292.357727,246.871964 288.522675,248.441772 
	C285.094574,249.845001 282.331909,249.104416 279.889893,246.636703 
	C277.307861,244.027496 276.954010,240.903870 279.025330,237.982162 
	C291.028961,221.050491 286.430908,204.425140 277.936920,188.093887 
	C271.675720,176.055573 261.480255,166.814529 253.173920,155.870438 
	C253.849960,158.459671 254.520798,161.050262 255.202866,163.637909 
	C262.011139,189.467422 258.240143,213.118347 240.938980,234.104660 
	C231.862579,245.114319 220.612366,253.771271 210.028824,263.145538 
	C201.863663,270.377777 194.484879,278.239471 188.998947,287.710510 
	C179.623093,303.897125 178.736282,320.606781 186.934662,337.432434 
	C200.110687,364.473785 221.955002,378.937469 251.931076,380.963257 
	C262.117889,381.651642 272.239868,381.053436 282.354187,377.389771 
z"/>
<path fill="#000000" opacity="1.000000" stroke="none" 
	d="
M217.880127,301.977356 
	C223.182541,291.116638 230.382034,281.894806 236.723038,272.131256 
	C244.091782,260.785248 251.025085,249.251678 253.791168,235.747406 
	C254.124771,234.118668 254.531845,232.187119 256.552734,232.055222 
	C258.384308,231.935684 258.976990,233.703293 259.272308,235.147888 
	C263.377838,255.231018 275.852631,270.872925 286.913635,287.250061 
	C290.835052,293.056152 294.276733,299.099274 297.528137,305.304932 
	C309.253235,327.683716 294.800812,353.384277 277.559082,361.838593 
	C250.187973,375.259766 217.557800,359.594696 212.517853,330.254425 
	C210.818985,320.364349 212.977234,311.068756 217.880127,301.977356 
M254.428909,351.720795 
	C257.739288,351.985168 260.747223,351.261780 261.242584,347.516510 
	C261.748749,343.689728 258.655457,342.537994 255.656921,341.665833 
	C255.021545,341.481018 254.339890,341.459167 253.698822,341.289459 
	C242.150238,338.232605 236.328262,326.339539 241.012329,315.375183 
	C242.931549,310.882721 245.777222,307.013489 248.932220,303.313171 
	C250.976959,300.915039 252.864212,298.356842 254.586838,295.716919 
	C256.451080,292.859955 255.706146,290.262848 253.019974,288.320251 
	C250.337677,286.380463 248.234894,287.969543 246.476822,289.865692 
	C241.139221,295.622589 236.189148,301.723236 232.504181,308.675598 
	C222.716888,327.141235 234.078186,350.183594 254.428909,351.720795 
z"/>
</svg>