<svg xmlns="http://www.w3.org/2000/svg" xmlns:xlink="http://www.w3.org/1999/xlink" version="1.1" width="1000" height="1000" viewBox="0 0 1000 1000" xml:space="preserve">
<desc>Created with Fabric.js 3.5.0</desc>
<defs>
</defs>
<rect x="0" y="0" width="100%" height="100%" fill="#ffffff"/>
<g transform="matrix(0.479 0 0 0.4808 3112.5428 3185.7362)" id="71351">
<g style="" vector-effect="non-scaling-stroke">
		<g transform="matrix(0.1333 0 0 -0.1333 -5493.384 -5686.9644)">
<path style="stroke: none; stroke-width: 1; stroke-dasharray: none; stroke-linecap: butt; stroke-dashoffset: 0; stroke-linejoin: miter; stroke-miterlimit: 4; is-custom-font: none; font-file-url: none; fill: rgb(0,0,0); fill-rule: nonzero; opacity: 1;" transform=" translate(-6800.25, -90651.3106)" d="M 6764 94297 c -171 -127 -302 -350 -364 -622 c -33 -146 -43 -254 -50 -585 c -8 -331 -19 -467 -49 -580 c -7 -25 -20 -72 -28 -105 c -9 -33 -27 -91 -40 -130 c -14 -38 -27 -79 -30 -90 c -13 -53 -114 -253 -172 -340 c -113 -173 -294 -385 -328 -385 c -10 0 -13 25 -13 98 c 0 90 -10 155 -46 292 c -46 171 -165 376 -300 515 c -53 54 -167 145 -182 145 c -5 0 -14 6 -20 13 c -6 6 -41 27 -79 45 c -37 19 -75 38 -85 42 c -24 13 -182 50 -211 50 c -25 0 -57 -23 -57 -40 c 0 -5 15 -23 33 -39 c 120 -107 155 -144 201 -206 c 82 -111 136 -233 156 -351 c 27 -155 -16 -429 -89 -572 c -5 -9 -26 -51 -46 -92 c -36 -71 -88 -158 -180 -300 c -85 -133 -112 -175 -118 -190 c -4 -8 -16 -28 -26 -45 c -28 -43 -135 -260 -161 -325 c -12 -30 -28 -68 -35 -85 c -15 -37 -34 -90 -45 -130 c -5 -16 -20 -68 -33 -115 c -35 -119 -47 -174 -58 -260 c -5 -41 -13 -104 -19 -140 c -5 -36 -10 -166 -10 -289 c 0 -223 8 -311 46 -482 c 7 -37 14 -76 14 -86 c 0 -11 6 -39 14 -64 c 7 -24 21 -71 31 -104 c 9 -33 24 -78 32 -100 c 8 -22 22 -58 30 -80 c 48 -129 152 -332 241 -470 c 209 -323 531 -629 837 -797 c 50 -28 243 -123 280 -138 c 86 -36 117 -48 170 -64 c 33 -10 75 -25 93 -32 c 18 -8 41 -14 51 -14 c 9 0 37 -6 62 -14 c 195 -61 730 -94 939 -58 c 210 36 433 91 540 132 c 30 12 67 25 81 30 c 14 4 34 12 45 17 c 10 6 64 32 119 59 c 104 50 260 140 331 190 c 206 146 429 361 572 551 c 51 67 92 124 92 127 c 0 3 13 24 29 48 c 64 97 177 320 216 429 c 39 109 83 250 99 319 c 9 41 21 92 27 112 c 5 20 14 67 19 105 c 5 37 14 93 20 123 c 14 74 14 521 0 590 c -5 30 -14 85 -19 121 c -5 37 -11 71 -15 77 c -3 6 -10 36 -15 69 c -5 32 -19 90 -31 128 c -11 39 -25 84 -30 100 c -22 74 -72 211 -81 220 c -5 5 -9 15 -9 22 c 0 21 -110 251 -177 373 c -17 30 -41 73 -53 95 c -12 22 -29 52 -38 67 c -9 14 -30 48 -46 75 c -131 216 -433 590 -458 565 c -4 -4 -3 -57 3 -116 c 11 -112 6 -370 -9 -511 c -13 -112 -40 -221 -85 -335 c -73 -189 -123 -255 -345 -463 c -84 -78 -90 -159 -18 -235 c 104 -111 262 -94 415 44 c 54 49 150 166 188 229 c 33 56 113 231 113 248 c 0 7 5 18 12 25 c 14 14 48 -2 48 -24 c 0 -9 6 -28 14 -42 c 25 -47 76 -174 76 -188 c 0 -7 6 -28 14 -46 c 18 -42 61 -208 85 -328 c 20 -99 40 -322 41 -450 c 0 -247 -37 -498 -96 -638 c -8 -18 -14 -39 -14 -47 c 0 -8 -6 -29 -14 -47 c -8 -18 -22 -53 -31 -78 c -129 -344 -401 -708 -690 -925 c -63 -47 -116 -85 -119 -85 c -2 0 -32 -18 -64 -40 c -62 -41 -233 -132 -268 -143 c -10 -3 -44 -15 -74 -27 c -63 -24 -137 -47 -195 -60 c -22 -5 -62 -14 -90 -20 c -27 -6 -68 -16 -90 -22 c -22 -6 -147 -12 -278 -15 c -281 -6 -380 6 -642 74 c -59 15 -88 24 -175 58 c -272 105 -493 249 -701 455 c -180 177 -348 427 -429 635 c -41 105 -59 166 -84 275 c -29 132 -37 223 -26 321 c 5 52 12 114 14 139 c 5 53 28 156 49 220 c 83 252 260 520 504 765 c 78 79 270 253 357 326 c 51 42 279 243 311 274 c 17 17 65 62 107 102 c 268 258 429 483 538 753 c 12 30 28 69 35 85 c 22 56 67 216 86 310 c 17 86 23 501 9 600 c -6 44 -15 105 -20 135 c -9 66 -30 157 -60 265 c -13 44 -26 98 -30 120 c -5 22 -11 51 -15 65 c -7 24 -7 24 19 -5 c 14 -16 67 -86 118 -155 c 50 -69 116 -154 147 -190 c 31 -36 74 -87 96 -115 c 22 -27 42 -52 45 -55 c 3 -3 33 -41 66 -85 c 83 -110 165 -238 209 -326 c 20 -41 42 -83 47 -93 c 6 -11 14 -31 18 -45 c 5 -14 18 -51 30 -81 c 54 -140 81 -276 87 -450 c 8 -228 -40 -396 -161 -560 c -85 -115 -70 -225 41 -297 c 19 -13 46 -17 97 -17 c 88 1 135 24 206 101 c 52 56 120 164 120 188 c 0 8 4 16 9 19 c 11 7 74 208 90 291 c 19 91 26 366 12 460 c -24 164 -29 194 -39 227 c -6 18 -25 80 -43 138 c -18 58 -38 116 -44 130 c -40 82 -152 304 -160 318 c -105 173 -235 334 -477 590 c -59 62 -140 156 -179 209 c -71 95 -159 235 -159 253 c 0 5 -6 24 -14 42 c -50 118 -59 230 -25 331 c 11 34 25 66 30 72 c 13 13 11 59 -3 73 c -22 22 -55 13 -114 -31 z" stroke-linecap="round"/>
</g>
		<g transform="matrix(0.1333 0 0 -0.1333 -5492.8516 -5540.428)">
<path style="stroke: none; stroke-width: 1; stroke-dasharray: none; stroke-linecap: butt; stroke-dashoffset: 0; stroke-linejoin: miter; stroke-miterlimit: 4; is-custom-font: none; font-file-url: none; fill: rgb(0,0,0); fill-rule: nonzero; opacity: 1;" transform=" translate(-6803.9062, -89552.7653)" d="M 6764 91309 c -18 -20 -33 -66 -54 -164 c -24 -116 -69 -232 -161 -420 c -87 -178 -105 -209 -228 -395 c -31 -47 -58 -88 -59 -93 c -4 -8 -105 -159 -223 -332 c -41 -60 -78 -117 -82 -125 c -9 -18 -23 -41 -62 -100 c -41 -63 -66 -110 -126 -230 c -75 -152 -96 -206 -110 -285 c -4 -27 -13 -68 -18 -90 c -13 -51 -13 -285 -1 -345 c 6 -25 14 -65 19 -90 c 17 -83 71 -204 146 -328 c 121 -200 340 -375 580 -465 c 258 -97 586 -94 845 6 c 149 58 274 136 382 239 c 103 98 191 221 252 353 c 10 22 25 53 32 68 c 8 16 14 36 14 46 c 0 9 4 21 9 27 c 6 5 19 52 30 104 c 57 275 29 467 -112 760 c -19 40 -156 274 -197 336 c -24 36 -244 359 -313 459 c -81 119 -156 236 -197 310 c -57 103 -140 269 -149 300 c -5 17 -19 55 -31 85 c -12 30 -25 69 -30 85 c -4 17 -12 41 -18 55 c -18 46 -42 136 -42 161 c 0 14 -8 36 -17 49 c -31 46 -50 51 -79 19 z m -66 -1463 c 46 -24 72 -69 72 -126 c 0 -55 -22 -95 -110 -205 c -183 -227 -246 -324 -294 -453 c -20 -54 -22 -241 -3 -280 c 8 -15 28 -57 46 -94 c 35 -72 129 -170 193 -202 c 54 -28 140 -56 171 -56 c 37 0 100 -33 126 -66 c 15 -19 21 -41 21 -80 c 0 -49 -3 -55 -42 -88 c -41 -35 -43 -36 -127 -36 c -78 0 -135 11 -206 41 c -88 37 -90 39 -181 106 c -148 110 -247 268 -298 475 c -58 238 44 517 305 833 c 23 28 130 155 154 184 c 48 57 117 76 173 47 z" stroke-linecap="round"/>
</g>
</g>
</g>
</svg>