<?xml version="1.0" standalone="no"?>
<!DOCTYPE svg PUBLIC "-//W3C//DTD SVG 20010904//EN"
 "http://www.w3.org/TR/2001/REC-SVG-20010904/DTD/svg10.dtd">
<svg version="1.0" xmlns="http://www.w3.org/2000/svg"
 width="9600.000000pt" height="9600.000000pt" viewBox="0 0 9600.000000 9600.000000"
 preserveAspectRatio="xMidYMid meet">
<metadata>
Created by potrace 1.10, written by Peter Selinger 2001-2011
</metadata>
<g transform="translate(0.000000,9600.000000) scale(0.100000,-0.100000)"
fill="#000000" stroke="none">
<path d="M6764 94297 c-171 -127 -302 -350 -364 -622 -33 -146 -43 -254 -50
-585 -8 -331 -19 -467 -49 -580 -7 -25 -20 -72 -28 -105 -9 -33 -27 -91 -40
-130 -14 -38 -27 -79 -30 -90 -13 -53 -114 -253 -172 -340 -113 -173 -294
-385 -328 -385 -10 0 -13 25 -13 98 0 90 -10 155 -46 292 -46 171 -165 376
-300 515 -53 54 -167 145 -182 145 -5 0 -14 6 -20 13 -6 6 -41 27 -79 45 -37
19 -75 38 -85 42 -24 13 -182 50 -211 50 -25 0 -57 -23 -57 -40 0 -5 15 -23
33 -39 120 -107 155 -144 201 -206 82 -111 136 -233 156 -351 27 -155 -16
-429 -89 -572 -5 -9 -26 -51 -46 -92 -36 -71 -88 -158 -180 -300 -85 -133
-112 -175 -118 -190 -4 -8 -16 -28 -26 -45 -28 -43 -135 -260 -161 -325 -12
-30 -28 -68 -35 -85 -15 -37 -34 -90 -45 -130 -5 -16 -20 -68 -33 -115 -35
-119 -47 -174 -58 -260 -5 -41 -13 -104 -19 -140 -5 -36 -10 -166 -10 -289 0
-223 8 -311 46 -482 7 -37 14 -76 14 -86 0 -11 6 -39 14 -64 7 -24 21 -71 31
-104 9 -33 24 -78 32 -100 8 -22 22 -58 30 -80 48 -129 152 -332 241 -470 209
-323 531 -629 837 -797 50 -28 243 -123 280 -138 86 -36 117 -48 170 -64 33
-10 75 -25 93 -32 18 -8 41 -14 51 -14 9 0 37 -6 62 -14 195 -61 730 -94 939
-58 210 36 433 91 540 132 30 12 67 25 81 30 14 4 34 12 45 17 10 6 64 32 119
59 104 50 260 140 331 190 206 146 429 361 572 551 51 67 92 124 92 127 0 3
13 24 29 48 64 97 177 320 216 429 39 109 83 250 99 319 9 41 21 92 27 112 5
20 14 67 19 105 5 37 14 93 20 123 14 74 14 521 0 590 -5 30 -14 85 -19 121
-5 37 -11 71 -15 77 -3 6 -10 36 -15 69 -5 32 -19 90 -31 128 -11 39 -25 84
-30 100 -22 74 -72 211 -81 220 -5 5 -9 15 -9 22 0 21 -110 251 -177 373 -17
30 -41 73 -53 95 -12 22 -29 52 -38 67 -9 14 -30 48 -46 75 -131 216 -433 590
-458 565 -4 -4 -3 -57 3 -116 11 -112 6 -370 -9 -511 -13 -112 -40 -221 -85
-335 -73 -189 -123 -255 -345 -463 -84 -78 -90 -159 -18 -235 104 -111 262
-94 415 44 54 49 150 166 188 229 33 56 113 231 113 248 0 7 5 18 12 25 14 14
48 -2 48 -24 0 -9 6 -28 14 -42 25 -47 76 -174 76 -188 0 -7 6 -28 14 -46 18
-42 61 -208 85 -328 20 -99 40 -322 41 -450 0 -247 -37 -498 -96 -638 -8 -18
-14 -39 -14 -47 0 -8 -6 -29 -14 -47 -8 -18 -22 -53 -31 -78 -129 -344 -401
-708 -690 -925 -63 -47 -116 -85 -119 -85 -2 0 -32 -18 -64 -40 -62 -41 -233
-132 -268 -143 -10 -3 -44 -15 -74 -27 -63 -24 -137 -47 -195 -60 -22 -5 -62
-14 -90 -20 -27 -6 -68 -16 -90 -22 -22 -6 -147 -12 -278 -15 -281 -6 -380 6
-642 74 -59 15 -88 24 -175 58 -272 105 -493 249 -701 455 -180 177 -348 427
-429 635 -41 105 -59 166 -84 275 -29 132 -37 223 -26 321 5 52 12 114 14 139
5 53 28 156 49 220 83 252 260 520 504 765 78 79 270 253 357 326 51 42 279
243 311 274 17 17 65 62 107 102 268 258 429 483 538 753 12 30 28 69 35 85
22 56 67 216 86 310 17 86 23 501 9 600 -6 44 -15 105 -20 135 -9 66 -30 157
-60 265 -13 44 -26 98 -30 120 -5 22 -11 51 -15 65 -7 24 -7 24 19 -5 14 -16
67 -86 118 -155 50 -69 116 -154 147 -190 31 -36 74 -87 96 -115 22 -27 42
-52 45 -55 3 -3 33 -41 66 -85 83 -110 165 -238 209 -326 20 -41 42 -83 47
-93 6 -11 14 -31 18 -45 5 -14 18 -51 30 -81 54 -140 81 -276 87 -450 8 -228
-40 -396 -161 -560 -85 -115 -70 -225 41 -297 19 -13 46 -17 97 -17 88 1 135
24 206 101 52 56 120 164 120 188 0 8 4 16 9 19 11 7 74 208 90 291 19 91 26
366 12 460 -24 164 -29 194 -39 227 -6 18 -25 80 -43 138 -18 58 -38 116 -44
130 -40 82 -152 304 -160 318 -105 173 -235 334 -477 590 -59 62 -140 156
-179 209 -71 95 -159 235 -159 253 0 5 -6 24 -14 42 -50 118 -59 230 -25 331
11 34 25 66 30 72 13 13 11 59 -3 73 -22 22 -55 13 -114 -31z"/>
<path d="M6764 91309 c-18 -20 -33 -66 -54 -164 -24 -116 -69 -232 -161 -420
-87 -178 -105 -209 -228 -395 -31 -47 -58 -88 -59 -93 -4 -8 -105 -159 -223
-332 -41 -60 -78 -117 -82 -125 -9 -18 -23 -41 -62 -100 -41 -63 -66 -110
-126 -230 -75 -152 -96 -206 -110 -285 -4 -27 -13 -68 -18 -90 -13 -51 -13
-285 -1 -345 6 -25 14 -65 19 -90 17 -83 71 -204 146 -328 121 -200 340 -375
580 -465 258 -97 586 -94 845 6 149 58 274 136 382 239 103 98 191 221 252
353 10 22 25 53 32 68 8 16 14 36 14 46 0 9 4 21 9 27 6 5 19 52 30 104 57
275 29 467 -112 760 -19 40 -156 274 -197 336 -24 36 -244 359 -313 459 -81
119 -156 236 -197 310 -57 103 -140 269 -149 300 -5 17 -19 55 -31 85 -12 30
-25 69 -30 85 -4 17 -12 41 -18 55 -18 46 -42 136 -42 161 0 14 -8 36 -17 49
-31 46 -50 51 -79 19z m-66 -1463 c46 -24 72 -69 72 -126 0 -55 -22 -95 -110
-205 -183 -227 -246 -324 -294 -453 -20 -54 -22 -241 -3 -280 8 -15 28 -57 46
-94 35 -72 129 -170 193 -202 54 -28 140 -56 171 -56 37 0 100 -33 126 -66 15
-19 21 -41 21 -80 0 -49 -3 -55 -42 -88 -41 -35 -43 -36 -127 -36 -78 0 -135
11 -206 41 -88 37 -90 39 -181 106 -148 110 -247 268 -298 475 -58 238 44 517
305 833 23 28 130 155 154 184 48 57 117 76 173 47z"/>
</g>
</svg>
